<svg xmlns="http://www.w3.org/2000/svg" width="70" height="61" viewBox="0 0 70 61"><g fill="none" fill-rule="evenodd" stroke-linecap="round" stroke-linejoin="round"><g stroke="#FFFFFF" stroke-width="4"><g><path d="M25.082 36.065c-2.033-2.03-3.27-4.788-3.27-7.881 0-6.198 4.992-11.194 11.187-11.194 3.065 0 5.887 1.24 7.884 3.27M43.978 30.168c-.82 4.56-4.413 8.16-8.97 8.987" transform="translate(-153 -218) translate(155 220)"></path><path d="M14.1 47.045C8.49 42.639 3.737 36.205.293 28.182c3.48-8.058 8.263-14.528 13.91-18.97 5.61-4.44 12.085-6.851 18.796-6.851 6.75 0 13.22 2.446 18.866 6.919M59.333 17.057c2.432 3.231 4.571 6.962 6.37 11.123C58.75 44.292 46.46 53.998 33 53.998c-3.052 0-6.06-.495-8.953-1.46M60.886.293L5.114 56.066" transform="translate(-153 -218) translate(155 220)"></path></g></g></g></svg>