<?xml version="1.0" ?><!DOCTYPE svg  PUBLIC '-//W3C//DTD SVG 1.1//EN'  'http://www.w3.org/Graphics/SVG/1.1/DTD/svg11.dtd'><svg height="100%" style="fill-rule:evenodd;clip-rule:evenodd;stroke-linejoin:round;stroke-miterlimit:2;" version="1.1" viewBox="0 0 512 512" width="100%" xml:space="preserve" xmlns="http://www.w3.org/2000/svg" xmlns:serif="http://www.serif.com/" xmlns:xlink="http://www.w3.org/1999/xlink"><g id="Messenger_4_"><path d="M256,0.003c-144.225,0 -256,105.645 -256,248.326c0,74.636 30.596,139.126 80.406,183.681c4.172,3.76 6.696,8.963 6.902,14.577l1.391,45.534c0.463,14.526 15.452,23.952 28.742,18.131l50.788,-22.406c4.326,-1.906 9.117,-2.266 13.65,-1.03c23.333,6.438 48.212,9.838 74.121,9.838c144.226,0 256,-105.645 256,-248.325c0,-142.681 -111.774,-248.326 -256,-248.326Z" id="Bubble_Solid_3_" style="fill:url(#_Linear1);"/><path d="M102.297,320.956l75.203,-119.295c11.95,-18.955 37.602,-23.694 55.527,-10.25l59.802,44.864c5.512,4.121 13.032,4.07 18.492,-0.051l80.766,-61.296c10.766,-8.19 24.879,4.739 17.616,16.174l-75.151,119.244c-11.951,18.955 -37.602,23.694 -55.527,10.25l-59.802,-44.865c-5.512,-4.12 -13.032,-4.069 -18.492,0.052l-80.818,61.347c-10.765,8.19 -24.879,-4.739 -17.616,-16.174Z" id="Bolt_4_" style="fill:#fff;"/></g><defs><linearGradient gradientTransform="matrix(1.45038e-13,512,-512,1.45038e-13,256,0.0032465)" gradientUnits="userSpaceOnUse" id="_Linear1" x1="0" x2="1" y1="0" y2="0"><stop offset="0" style="stop-color:#00b2ff;stop-opacity:1"/><stop offset="1" style="stop-color:#006aff;stop-opacity:1"/></linearGradient></defs></svg>