<?xml version="1.0" encoding="UTF-8"?>
<svg viewBox="0 0 41 48" version="1.1" xmlns="http://www.w3.org/2000/svg" xmlns:xlink="http://www.w3.org/1999/xlink">
    <!-- Generator: Sketch 49.2 (51160) - http://www.bohemiancoding.com/sketch -->
    <title>Apple</title>
    <desc>Created with Sketch.</desc>
    <defs></defs>
    <g id="Page-1" stroke="none" stroke-width="1" fill="none" fill-rule="evenodd">
        <g id="Social-Icons---Isolated" transform="translate(-55.000000, -951.000000)" fill="#717171">
            <path d="M82.1747352,958.792499 C83.7401771,956.771699 84.9268831,953.915484 84.497649,951 C81.9390773,951.177808 78.948466,952.814769 77.2034752,954.948463 C75.6127843,956.88177 74.3054439,959.757742 74.816036,962.549042 C77.6130711,962.636535 80.4998807,960.960061 82.1747352,958.792499 L82.1747352,958.792499 Z M96,986.217241 C94.8806249,988.712195 94.3419782,989.827022 92.8999761,992.03692 C90.8884674,995.121745 88.052156,998.962958 84.5341199,998.991182 C81.4116524,999.02505 80.6064879,996.94498 76.3674507,996.970382 C72.1284135,996.99296 71.2446963,999.030695 68.116618,998.999649 C64.6013873,998.968603 61.9137648,995.502761 59.9022561,992.417937 C54.2745205,983.79849 53.6825702,973.680377 57.1529137,968.298162 C59.6217109,964.476705 63.5156776,962.241407 67.1739863,962.241407 C70.8968204,962.241407 73.2393723,964.296075 76.3225635,964.296075 C79.3131747,964.296075 81.1339127,962.235762 85.4402807,962.235762 C88.7002153,962.235762 92.1537261,964.022307 94.6113015,967.10431 C86.5540449,971.546683 87.8585799,983.121127 96,986.217241 L96,986.217241 Z" id="Apple"></path>
        </g>
    </g>
</svg>